<?xml version="1.0" encoding="utf-8"?>
<?xml-stylesheet type="text/xsl" href="rss1.xsl"?>
<rss version="2.0" xmlns:atom="http://www.w3.org/2005/Atom" xmlns:content="http://purl.org/rss/1.0/modules/content/" xmlns:dc="http://purl.org/dc/elements/1.1/" xmlns:media="http://search.yahoo.com/mrss/">
<channel>
 <title>Getty</title>
 <link>http://www.gettyimg.com/</link>
 <atom:link href="http://www.gettyimg.com/" rel="self" type="application/rss+xml" />

 
                <item>
                <title><![CDATA[【Music Videos】J Balvin - Amarillo [4K HEVC 10-bit / PCM / DD+ Dolby Atmos]]]></title>
                <link><![CDATA[https://sharemania.us/threads/j-balvin-amarillo-4k-hevc-10-bit-pcm-dd-dolby-atmos.219773/]]></link>
                <description><![CDATA[<article>
<blockquote class="messageText SelectQuoteContainer ugc baseHtml">
<b><img src="https://images2.imgbox.com/59/9d/BPbsDYri_o.jpg" class="bbCodeImage LbImage" alt="[​IMG]" data-url="https://images2.imgbox.com/59/9d/BPbsDYri_o.jpg" style=""> <br>
<br>
Genre: <span style="color: #0059b3">Hip Hop, Latin</span> <br>
Style: <span style="color: #0059b3">Reggaeton, Trap</span> <br>
Year: <span style="color: #0059b3">2020</span> <br>
Video Source: <span style="color: #0059b3">Apple Music, thanks CAPRiCE24</span><br>
Audio Source: <span style="color: #0059b3">Qobuz &amp; Apple Music, thanks Brungor &amp; bunny</span></b><br>
<br>
"<b>Amarillo</b>" is a song by Colombian singer J Balvin. It was released on 19 March 2020 as the fourth single from his studio album <i>Colores</i>. On 16 February 2020, Balvin announced the track along with the album through his social media. Alongside the publication, he shared a preview of the music video for "Amarillo", directed by Colin Tilley, which shows the singer in yellow and orange clothes and hair. The track premiered on 19 March 2020, the same day he premiered from his fourth studio album <i>Colores</i>.<br>
<br>
The song was written by the singer alongside Alejandro Ramírez, Afro Bros, William Grigachcine and Ronald Hernandez was performed under the production of Sky Rompiendo and DJ Snake.<br>
<br>
In an interview for Apple Music, Balvin commented that "Amarillo is a very energetic song and is ready for nightclubs. A lot of people know about J Balvin, but few know about José, so it's the first song on the album, because as soon as they hear it, I want them to feel the color and power of the song."<br>
<br>
<b>Release Info</b><br>
I've cut the intro to match it with the album version so I could sync the Atmos track to it.<br>
The PCM track is lossless (Qobuz CD quality), synced with Adobe Audition.<br>
The Dolby Atmos track is lossy (Dolby Digital Plus), synced by muxing.<br>
The timed lyrics are synced and edited to match the music video.<br>
Enable the subtitles to see the lyrics.<br>
<br>
<div class="ToggleTriggerAnchor bbCodeSpoilerContainer">
<button type="button" class="button bbCodeSpoilerButton ToggleTrigger Tooltip JsOnly" data-target="> .SpoilerTarget"><span>Spoiler: <span class="SpoilerTitle">Media Info</span></span></button>
<div class="SpoilerTarget bbCodeSpoilerText">
<div class="bbCodeBlock bbCodeCode">
<div class="type">Code:</div>
<pre>General
Unique ID                      : 120234351118537262824143954360434131138 (0x5A744B30FE1376143F1C4DDA702B80C2)
Complete name                  : J Balvin - Amarillo.mkv
Format                         : Matroska
Format version                 : Version 4
File size                      : 442 MiB
Duration                       : 2 min 37 s
Overall bit rate               : 23.5 Mb/s
Encoded date                   : UTC 2023-04-23 19:45:27
Writing application            : mkvmerge v75.0.0 ('Goliath') 64-bit
Writing library                : libebml v1.4.4 + libmatroska v1.7.1

Video
ID                             : 1
Format                         : HEVC
Format/Info                    : High Efficiency Video Coding
Format profile                 : Main 10@L5@High
Codec ID                       : V_MPEGH/ISO/HEVC
Duration                       : 2 min 37 s
Bit rate                       : 21.1 Mb/s
Width                          : 3 832 pixels
Height                         : 2 152 pixels
Display aspect ratio           : 16:9
Frame rate mode                : Constant
Frame rate                     : 23.976 (23976/1000) FPS
Color space                    : YUV
Chroma subsampling             : 4:2:0
Bit depth                      : 10 bits
Bits/(Pixel*Frame)             : 0.107
Stream size                    : 396 MiB (90%)
Default                        : Yes
Forced                         : No
Color range                    : Limited
Color primaries                : BT.709
Transfer characteristics       : BT.709
Matrix coefficients            : BT.709

Audio #1
ID                             : 2
Format                         : PCM
Format settings                : Little / Signed
Codec ID                       : A_PCM/INT/LIT
Duration                       : 2 min 37 s
Bit rate mode                  : Constant
Bit rate                       : 1 411.2 kb/s
Channel(s)                     : 2 channels
Sampling rate                  : 44.1 kHz
Frame rate                     : 25.000 FPS (1764 SPF)
Bit depth                      : 16 bits
Stream size                    : 26.5 MiB (6%)
Title                          : Lossless
Language                       : Spanish
Default                        : Yes
Forced                         : No

Audio #2
ID                             : 3
Format                         : E-AC-3 JOC
Format/Info                    : Enhanced AC-3 with Joint Object Coding
Commercial name                : Dolby Digital Plus with Dolby Atmos
Codec ID                       : A_EAC3
Duration                       : 2 min 37 s
Bit rate mode                  : Constant
Bit rate                       : 768 kb/s
Channel(s)                     : 6 channels
Channel layout                 : L R C LFE Ls Rs
Sampling rate                  : 48.0 kHz
Frame rate                     : 31.250 FPS (1536 SPF)
Compression mode               : Lossy
Delay relative to video        : 8 ms
Stream size                    : 14.5 MiB (3%)
Title                          : Dolby Digital Plus with Dolby Atmos
Language                       : Spanish
Service kind                   : Complete Main
Default                        : No
Forced                         : No
Complexity index               : 16
Number of dynamic objects      : 15
Bed channel count              : 1 channel
Bed channel configuration      : LFE

Audio #3
ID                             : 4
Format                         : AAC LC
Format/Info                    : Advanced Audio Codec Low Complexity
Codec ID                       : A_AAC-2
Duration                       : 2 min 37 s
Bit rate                       : 253 kb/s
Channel(s)                     : 2 channels
Channel layout                 : L R
Sampling rate                  : 48.0 kHz
Frame rate                     : 46.875 FPS (1024 SPF)
Compression mode               : Lossy
Delay relative to video        : 17 ms
Stream size                    : 4.75 MiB (1%)
Language                       : Spanish
Default                        : No
Forced                         : No

Text
ID                             : 5
Format                         : UTF-8
Codec ID                       : S_TEXT/UTF8
Codec ID/Info                  : UTF-8 Plain Text
Duration                       : 2 min 16 s
Bit rate                       : 109 b/s
Frame rate                     : 0.520 FPS
Count of elements              : 71
Stream size                    : 1.82 KiB (0%)
Title                          : Lyrics
Language                       : Spanish
Default                        : No
Forced                         : No
</pre>
</div></div>
</div><br>
<div class="bbCodeBlock bbCodeVfcHH HiddenContent">
<div class="attribution type">Hidden Content:</div>
<blockquote>You must reply before you can see the hidden data contained here.</blockquote>
</div>
<div class="messageTextEndMarker">&nbsp;</div>
</blockquote>
</article>]]></description>
                <author><![CDATA[ADHDerby]]></author>
                </item>

                </channel></rss>